<svg width="316" height="48" viewBox="0 0 316 48" fill="none" xmlns="http://www.w3.org/2000/svg">
<path d="M14.0341 35H8.76136L16.7955 11.7273H23.1364L31.1591 35H25.8864L20.0568 17.0455H19.875L14.0341 35ZM13.7045 25.8523H26.1591V29.6932H13.7045V25.8523ZM33.8693 35V17.5455H38.483V20.625H38.6875C39.0511 19.6023 39.6572 18.7955 40.5057 18.2045C41.3542 17.6136 42.3693 17.3182 43.5511 17.3182C44.7481 17.3182 45.767 17.6174 46.608 18.2159C47.4489 18.8068 48.0095 19.6098 48.2898 20.625H48.4716C48.8277 19.625 49.4716 18.8258 50.4034 18.2273C51.3428 17.6212 52.4527 17.3182 53.733 17.3182C55.3617 17.3182 56.6837 17.8371 57.6989 18.875C58.7216 19.9053 59.233 21.3674 59.233 23.2614V35H54.4034V24.2159C54.4034 23.2462 54.1458 22.5189 53.6307 22.0341C53.1155 21.5492 52.4716 21.3068 51.6989 21.3068C50.8201 21.3068 50.1345 21.5871 49.642 22.1477C49.1496 22.7008 48.9034 23.4318 48.9034 24.3409V35H44.2102V24.1136C44.2102 23.2576 43.964 22.5758 43.4716 22.0682C42.9867 21.5606 42.3466 21.3068 41.5511 21.3068C41.0133 21.3068 40.5284 21.4432 40.0966 21.7159C39.6723 21.9811 39.3352 22.3561 39.0852 22.8409C38.8352 23.3182 38.7102 23.8788 38.7102 24.5227V35H33.8693ZM63.1477 35V11.7273H67.9886V20.4773H68.1364C68.3485 20.0076 68.6553 19.5303 69.0568 19.0455C69.4659 18.553 69.9962 18.1439 70.6477 17.8182C71.3068 17.4848 72.125 17.3182 73.1023 17.3182C74.375 17.3182 75.5492 17.6515 76.625 18.3182C77.7008 18.9773 78.5606 19.9735 79.2045 21.3068C79.8485 22.6326 80.1705 24.2955 80.1705 26.2955C80.1705 28.2424 79.8561 29.8864 79.2273 31.2273C78.6061 32.5606 77.7576 33.572 76.6818 34.2614C75.6136 34.9432 74.4167 35.2841 73.0909 35.2841C72.1515 35.2841 71.3523 35.1288 70.6932 34.8182C70.0417 34.5076 69.5076 34.1174 69.0909 33.6477C68.6742 33.1705 68.3561 32.6894 68.1364 32.2045H67.9205V35H63.1477ZM67.8864 26.2727C67.8864 27.3106 68.0303 28.2159 68.3182 28.9886C68.6061 29.7614 69.0227 30.3636 69.5682 30.7955C70.1136 31.2197 70.7765 31.4318 71.5568 31.4318C72.3447 31.4318 73.0114 31.2159 73.5568 30.7841C74.1023 30.3447 74.5152 29.7386 74.7955 28.9659C75.0833 28.1856 75.2273 27.2879 75.2273 26.2727C75.2273 25.2652 75.0871 24.3788 74.8068 23.6136C74.5265 22.8485 74.1136 22.25 73.5682 21.8182C73.0227 21.3864 72.3523 21.1705 71.5568 21.1705C70.7689 21.1705 70.1023 21.3788 69.5568 21.7955C69.0189 22.2121 68.6061 22.803 68.3182 23.5682C68.0303 24.3333 67.8864 25.2348 67.8864 26.2727ZM83.4006 35V17.5455H88.2415V35H83.4006ZM85.8324 15.2955C85.1127 15.2955 84.4953 15.0568 83.9801 14.5795C83.4725 14.0947 83.2188 13.5152 83.2188 12.8409C83.2188 12.1742 83.4725 11.6023 83.9801 11.125C84.4953 10.6402 85.1127 10.3977 85.8324 10.3977C86.5521 10.3977 87.1657 10.6402 87.6733 11.125C88.1884 11.6023 88.446 12.1742 88.446 12.8409C88.446 13.5152 88.1884 14.0947 87.6733 14.5795C87.1657 15.0568 86.5521 15.2955 85.8324 15.2955ZM97.0966 35.3295C95.983 35.3295 94.9905 35.1364 94.1193 34.75C93.2481 34.3561 92.5587 33.7765 92.0511 33.0114C91.5511 32.2386 91.3011 31.2765 91.3011 30.125C91.3011 29.1553 91.4792 28.3409 91.8352 27.6818C92.1913 27.0227 92.6761 26.4924 93.2898 26.0909C93.9034 25.6894 94.6004 25.3864 95.3807 25.1818C96.1686 24.9773 96.9943 24.8333 97.858 24.75C98.8731 24.6439 99.6913 24.5455 100.312 24.4545C100.934 24.3561 101.384 24.2121 101.665 24.0227C101.945 23.8333 102.085 23.553 102.085 23.1818V23.1136C102.085 22.3939 101.858 21.8371 101.403 21.4432C100.956 21.0492 100.32 20.8523 99.4943 20.8523C98.6231 20.8523 97.9299 21.0455 97.4148 21.4318C96.8996 21.8106 96.5587 22.2879 96.392 22.8636L91.9148 22.5C92.142 21.4394 92.589 20.5227 93.2557 19.75C93.9223 18.9697 94.7822 18.3712 95.8352 17.9545C96.8958 17.5303 98.1231 17.3182 99.517 17.3182C100.487 17.3182 101.415 17.4318 102.301 17.6591C103.195 17.8864 103.987 18.2386 104.676 18.7159C105.373 19.1932 105.922 19.8068 106.324 20.5568C106.725 21.2992 106.926 22.1894 106.926 23.2273V35H102.335V32.5795H102.199C101.919 33.125 101.544 33.6061 101.074 34.0227C100.604 34.4318 100.04 34.7538 99.3807 34.9886C98.7216 35.2159 97.9602 35.3295 97.0966 35.3295ZM98.483 31.9886C99.1951 31.9886 99.8239 31.8485 100.369 31.5682C100.915 31.2803 101.343 30.8939 101.653 30.4091C101.964 29.9242 102.119 29.375 102.119 28.7614V26.9091C101.968 27.0076 101.759 27.0985 101.494 27.1818C101.237 27.2576 100.945 27.3295 100.619 27.3977C100.294 27.4583 99.9678 27.5152 99.642 27.5682C99.3163 27.6136 99.0208 27.6553 98.7557 27.6932C98.1875 27.7765 97.6913 27.9091 97.267 28.0909C96.8428 28.2727 96.5133 28.5189 96.2784 28.8295C96.0436 29.1326 95.9261 29.5114 95.9261 29.9659C95.9261 30.625 96.1648 31.1288 96.642 31.4773C97.1269 31.8182 97.7405 31.9886 98.483 31.9886ZM115.523 24.9091V35H110.682V17.5455H115.295V20.625H115.5C115.886 19.6098 116.534 18.8068 117.443 18.2159C118.352 17.6174 119.455 17.3182 120.75 17.3182C121.962 17.3182 123.019 17.5833 123.92 18.1136C124.822 18.6439 125.523 19.4015 126.023 20.3864C126.523 21.3636 126.773 22.5303 126.773 23.8864V35H121.932V24.75C121.939 23.6818 121.667 22.8485 121.114 22.25C120.561 21.6439 119.799 21.3409 118.83 21.3409C118.178 21.3409 117.602 21.4811 117.102 21.7614C116.61 22.0417 116.223 22.4508 115.943 22.9886C115.67 23.5189 115.53 24.1591 115.523 24.9091ZM138.474 35.3409C136.687 35.3409 135.149 34.9621 133.861 34.2045C132.58 33.4394 131.596 32.3788 130.906 31.0227C130.224 29.6667 129.884 28.1061 129.884 26.3409C129.884 24.553 130.228 22.9848 130.918 21.6364C131.615 20.2803 132.603 19.2235 133.884 18.4659C135.164 17.7008 136.687 17.3182 138.452 17.3182C139.974 17.3182 141.308 17.5947 142.452 18.1477C143.596 18.7008 144.501 19.4773 145.168 20.4773C145.834 21.4773 146.202 22.6515 146.27 24H141.702C141.573 23.1288 141.232 22.428 140.679 21.8977C140.134 21.3598 139.418 21.0909 138.531 21.0909C137.781 21.0909 137.126 21.2955 136.565 21.7045C136.012 22.1061 135.58 22.6932 135.27 23.4659C134.959 24.2386 134.804 25.1742 134.804 26.2727C134.804 27.3864 134.955 28.3333 135.259 29.1136C135.569 29.8939 136.005 30.4886 136.565 30.8977C137.126 31.3068 137.781 31.5114 138.531 31.5114C139.084 31.5114 139.58 31.3977 140.02 31.1705C140.467 30.9432 140.834 30.6136 141.122 30.1818C141.418 29.7424 141.611 29.2159 141.702 28.6023H146.27C146.194 29.9356 145.83 31.1098 145.179 32.125C144.535 33.1326 143.645 33.9205 142.509 34.4886C141.372 35.0568 140.027 35.3409 138.474 35.3409ZM157.324 35.3409C155.528 35.3409 153.983 34.9773 152.688 34.25C151.4 33.5152 150.407 32.4773 149.71 31.1364C149.013 29.7879 148.665 28.1932 148.665 26.3523C148.665 24.5568 149.013 22.9811 149.71 21.625C150.407 20.2689 151.388 19.2121 152.653 18.4545C153.926 17.697 155.419 17.3182 157.131 17.3182C158.282 17.3182 159.354 17.5038 160.347 17.875C161.347 18.2386 162.218 18.7879 162.96 19.5227C163.71 20.2576 164.294 21.1818 164.71 22.2955C165.127 23.4015 165.335 24.697 165.335 26.1818V27.5114H150.597V24.5114H160.778C160.778 23.8144 160.627 23.197 160.324 22.6591C160.021 22.1212 159.6 21.7008 159.062 21.3977C158.532 21.0871 157.915 20.9318 157.21 20.9318C156.475 20.9318 155.824 21.1023 155.256 21.4432C154.695 21.7765 154.256 22.2273 153.938 22.7955C153.619 23.3561 153.456 23.9811 153.449 24.6705V27.5227C153.449 28.3864 153.608 29.1326 153.926 29.7614C154.252 30.3902 154.71 30.875 155.301 31.2159C155.892 31.5568 156.593 31.7273 157.403 31.7273C157.941 31.7273 158.434 31.6515 158.881 31.5C159.328 31.3485 159.71 31.1212 160.028 30.8182C160.347 30.5152 160.589 30.1439 160.756 29.7045L165.233 30C165.006 31.0758 164.54 32.0152 163.835 32.8182C163.138 33.6136 162.237 34.2348 161.131 34.6818C160.032 35.1212 158.763 35.3409 157.324 35.3409ZM179.185 11.7273V35H177.06V11.7273H179.185ZM186.974 24.0909V35H184.952V17.5455H186.918V20.2841H187.099C187.509 19.3902 188.145 18.6742 189.009 18.1364C189.88 17.5909 190.955 17.3182 192.236 17.3182C193.41 17.3182 194.44 17.5644 195.327 18.0568C196.221 18.5417 196.914 19.2576 197.406 20.2045C197.906 21.1515 198.156 22.3144 198.156 23.6932V35H196.134V23.8182C196.134 22.3864 195.732 21.2538 194.929 20.4205C194.134 19.5871 193.065 19.1705 191.724 19.1705C190.808 19.1705 189.993 19.3674 189.281 19.7614C188.569 20.1553 188.005 20.7235 187.588 21.4659C187.179 22.2008 186.974 23.0758 186.974 24.0909ZM210.358 17.5455V19.3068H202.028V17.5455H210.358ZM204.631 13.3636H206.665V30.4432C206.665 31.1705 206.79 31.7424 207.04 32.1591C207.29 32.5682 207.616 32.8598 208.017 33.0341C208.419 33.2008 208.847 33.2841 209.301 33.2841C209.566 33.2841 209.794 33.2689 209.983 33.2386C210.172 33.2008 210.339 33.1629 210.483 33.125L210.915 34.9545C210.718 35.0303 210.475 35.0985 210.188 35.1591C209.9 35.2273 209.544 35.2614 209.119 35.2614C208.377 35.2614 207.661 35.0985 206.972 34.7727C206.29 34.447 205.729 33.9621 205.29 33.3182C204.85 32.6742 204.631 31.875 204.631 30.9205V13.3636ZM221.821 35.3636C220.192 35.3636 218.783 34.9848 217.594 34.2273C216.404 33.4621 215.484 32.4053 214.832 31.0568C214.188 29.7008 213.866 28.1402 213.866 26.375C213.866 24.6174 214.188 23.0568 214.832 21.6932C215.484 20.322 216.382 19.25 217.526 18.4773C218.677 17.697 220.007 17.3068 221.514 17.3068C222.461 17.3068 223.374 17.4811 224.253 17.8295C225.132 18.1705 225.92 18.697 226.616 19.4091C227.321 20.1136 227.878 21.0038 228.287 22.0795C228.696 23.1477 228.901 24.4129 228.901 25.875V26.875H215.264V25.0909H226.832C226.832 23.9697 226.605 22.9621 226.151 22.0682C225.704 21.1667 225.079 20.4545 224.276 19.9318C223.48 19.4091 222.56 19.1477 221.514 19.1477C220.408 19.1477 219.435 19.4432 218.594 20.0341C217.753 20.625 217.094 21.4053 216.616 22.375C216.147 23.3447 215.908 24.4053 215.901 25.5568V26.625C215.901 28.0114 216.139 29.2235 216.616 30.2614C217.101 31.2917 217.787 32.0909 218.673 32.6591C219.56 33.2273 220.609 33.5114 221.821 33.5114C222.647 33.5114 223.37 33.3826 223.991 33.125C224.62 32.8674 225.147 32.5227 225.571 32.0909C226.003 31.6515 226.329 31.1705 226.548 30.6477L228.469 31.2727C228.204 32.0076 227.768 32.6856 227.162 33.3068C226.563 33.928 225.813 34.428 224.912 34.8068C224.018 35.178 222.988 35.3636 221.821 35.3636ZM233.358 35V17.5455H235.324V20.2273H235.472C235.82 19.3485 236.426 18.6402 237.29 18.1023C238.161 17.5568 239.146 17.2841 240.244 17.2841C240.411 17.2841 240.597 17.2879 240.801 17.2955C241.006 17.303 241.176 17.3106 241.312 17.3182V19.375C241.222 19.3598 241.063 19.3371 240.835 19.3068C240.608 19.2765 240.362 19.2614 240.097 19.2614C239.188 19.2614 238.377 19.4545 237.665 19.8409C236.96 20.2197 236.403 20.7462 235.994 21.4205C235.585 22.0947 235.381 22.8636 235.381 23.7273V35H233.358ZM244.787 35V17.5455H246.821V35H244.787ZM245.821 14.5455C245.404 14.5455 245.048 14.4053 244.753 14.125C244.457 13.8371 244.31 13.4924 244.31 13.0909C244.31 12.6894 244.457 12.3485 244.753 12.0682C245.048 11.7803 245.404 11.6364 245.821 11.6364C246.238 11.6364 246.594 11.7803 246.889 12.0682C247.185 12.3485 247.332 12.6894 247.332 13.0909C247.332 13.4924 247.185 13.8371 246.889 14.125C246.594 14.4053 246.238 14.5455 245.821 14.5455ZM258.955 35.3636C257.447 35.3636 256.114 34.9811 254.955 34.2159C253.803 33.4508 252.902 32.3939 252.25 31.0455C251.598 29.6894 251.273 28.125 251.273 26.3523C251.273 24.5644 251.598 22.9924 252.25 21.6364C252.902 20.2727 253.803 19.2121 254.955 18.4545C256.114 17.6894 257.447 17.3068 258.955 17.3068C260.462 17.3068 261.792 17.6894 262.943 18.4545C264.095 19.2197 264.996 20.2803 265.648 21.6364C266.307 22.9924 266.636 24.5644 266.636 26.3523C266.636 28.125 266.311 29.6894 265.659 31.0455C265.008 32.3939 264.102 33.4508 262.943 34.2159C261.792 34.9811 260.462 35.3636 258.955 35.3636ZM258.955 33.5114C260.167 33.5114 261.193 33.1856 262.034 32.5341C262.875 31.8826 263.511 31.0152 263.943 29.9318C264.383 28.8485 264.602 27.6553 264.602 26.3523C264.602 25.0492 264.383 23.8523 263.943 22.7614C263.511 21.6705 262.875 20.7955 262.034 20.1364C261.193 19.4773 260.167 19.1477 258.955 19.1477C257.75 19.1477 256.723 19.4773 255.875 20.1364C255.034 20.7955 254.394 21.6705 253.955 22.7614C253.523 23.8523 253.307 25.0492 253.307 26.3523C253.307 27.6553 253.523 28.8485 253.955 29.9318C254.394 31.0152 255.034 31.8826 255.875 32.5341C256.716 33.1856 257.742 33.5114 258.955 33.5114ZM271.077 35V17.5455H273.043V20.2273H273.19C273.539 19.3485 274.145 18.6402 275.009 18.1023C275.88 17.5568 276.865 17.2841 277.963 17.2841C278.13 17.2841 278.315 17.2879 278.52 17.2955C278.724 17.303 278.895 17.3106 279.031 17.3182V19.375C278.94 19.3598 278.781 19.3371 278.554 19.3068C278.327 19.2765 278.08 19.2614 277.815 19.2614C276.906 19.2614 276.096 19.4545 275.384 19.8409C274.679 20.2197 274.122 20.7462 273.713 21.4205C273.304 22.0947 273.099 22.8636 273.099 23.7273V35H271.077ZM289.009 35.3636C287.38 35.3636 285.971 34.9848 284.781 34.2273C283.592 33.4621 282.671 32.4053 282.02 31.0568C281.376 29.7008 281.054 28.1402 281.054 26.375C281.054 24.6174 281.376 23.0568 282.02 21.6932C282.671 20.322 283.569 19.25 284.713 18.4773C285.865 17.697 287.194 17.3068 288.702 17.3068C289.649 17.3068 290.562 17.4811 291.44 17.8295C292.319 18.1705 293.107 18.697 293.804 19.4091C294.509 20.1136 295.065 21.0038 295.474 22.0795C295.884 23.1477 296.088 24.4129 296.088 25.875V26.875H282.452V25.0909H294.02C294.02 23.9697 293.793 22.9621 293.338 22.0682C292.891 21.1667 292.266 20.4545 291.463 19.9318C290.668 19.4091 289.747 19.1477 288.702 19.1477C287.596 19.1477 286.622 19.4432 285.781 20.0341C284.94 20.625 284.281 21.4053 283.804 22.375C283.334 23.3447 283.096 24.4053 283.088 25.5568V26.625C283.088 28.0114 283.327 29.2235 283.804 30.2614C284.289 31.2917 284.974 32.0909 285.861 32.6591C286.747 33.2273 287.796 33.5114 289.009 33.5114C289.834 33.5114 290.558 33.3826 291.179 33.125C291.808 32.8674 292.334 32.5227 292.759 32.0909C293.19 31.6515 293.516 31.1705 293.736 30.6477L295.656 31.2727C295.391 32.0076 294.955 32.6856 294.349 33.3068C293.751 33.928 293.001 34.428 292.099 34.8068C291.205 35.178 290.175 35.3636 289.009 35.3636ZM312.273 21.375L310.42 21.8977C310.239 21.375 309.981 20.9015 309.648 20.4773C309.314 20.053 308.879 19.7159 308.341 19.4659C307.811 19.2159 307.152 19.0909 306.364 19.0909C305.182 19.0909 304.212 19.3712 303.455 19.9318C302.697 20.4924 302.318 21.2159 302.318 22.1023C302.318 22.8523 302.576 23.4621 303.091 23.9318C303.614 24.3939 304.417 24.7614 305.5 25.0341L308.136 25.6818C309.598 26.0379 310.693 26.6023 311.42 27.375C312.155 28.1477 312.523 29.1174 312.523 30.2841C312.523 31.2689 312.25 32.1439 311.705 32.9091C311.159 33.6742 310.398 34.2765 309.42 34.7159C308.451 35.1477 307.326 35.3636 306.045 35.3636C304.341 35.3636 302.936 34.9811 301.83 34.2159C300.723 33.4432 300.015 32.3295 299.705 30.875L301.648 30.3977C301.898 31.4356 302.386 32.2197 303.114 32.75C303.848 33.2803 304.814 33.5455 306.011 33.5455C307.352 33.5455 308.424 33.2462 309.227 32.6477C310.03 32.0417 310.432 31.2841 310.432 30.375C310.432 29.6705 310.197 29.0795 309.727 28.6023C309.258 28.1174 308.545 27.7614 307.591 27.5341L304.739 26.8523C303.223 26.4886 302.102 25.9129 301.375 25.125C300.648 24.3371 300.284 23.3598 300.284 22.1932C300.284 21.2311 300.545 20.3864 301.068 19.6591C301.591 18.9242 302.311 18.3485 303.227 17.9318C304.144 17.5152 305.189 17.3068 306.364 17.3068C307.962 17.3068 309.239 17.6705 310.193 18.3977C311.155 19.1174 311.848 20.1098 312.273 21.375Z" fill="black"/>
<path fill-rule="evenodd" clip-rule="evenodd" d="M35 0H5C2.23858 0 0 2.23857 0 5V43C0 45.7614 2.23858 48 5 48H35C37.7614 48 40 45.7614 40 43C40 42.4477 39.5523 42 39 42H37C36.4477 42 36 42.4477 36 43C36 43.5523 35.5523 44 35 44H5C4.44772 44 4 43.5523 4 43V5C4 4.44771 4.44772 4 5 4H35C35.5523 4 36 4.44772 36 5C36 5.55228 36.4477 6 37 6H39C39.5523 6 40 5.55228 40 5C40 2.23858 37.7614 0 35 0Z" fill="#1F1F1F"/>
</svg>
